<svg width="25" height="28" viewBox="0 0 25 28" fill="none" xmlns="http://www.w3.org/2000/svg">
<path d="M23.6526 3.36954H20.0064V1.23276C20.0064 0.551933 19.5805 0 19.0552 0C18.5299 0 18.1041 0.551933 18.1041 1.23276V3.36954H6.4997V1.23276C6.4997 0.551933 6.07384 0 5.54853 0C5.02321 0 4.59735 0.551933 4.59735 1.23276V3.36954H0.951176C0.425862 3.36954 0 3.92148 0 4.6023V26.0523C0 26.7332 0.425862 27.2851 0.951176 27.2851H23.6526C24.1779 27.2851 24.6038 26.7332 24.6038 26.0523V4.6023C24.6038 3.92148 24.1779 3.36954 23.6526 3.36954ZM4.72418 12.177C4.72418 11.6247 5.17189 11.177 5.72418 11.177H10.858C11.4103 11.177 11.858 11.6247 11.858 12.177V12.6425C11.858 13.1948 11.4103 13.6425 10.858 13.6425H5.72418C5.17189 13.6425 4.72418 13.1948 4.72418 12.6425V12.177ZM19.8606 18.8192C19.8535 19.3664 19.4079 19.8063 18.8607 19.8063H5.72418C5.17189 19.8063 4.72418 19.3586 4.72418 18.8063V18.3408C4.72418 17.7885 5.17189 17.3408 5.72418 17.3408H18.8666C19.424 17.3408 19.8737 17.7964 19.8666 18.3537L19.8606 18.8192Z" fill="#00C6BC"/>
</svg>
